<svg width="56" height="56" viewBox="0 0 56 56" fill="none" xmlns="http://www.w3.org/2000/svg">
<mask id="mask0_1087_15596" style="mask-type:alpha" maskUnits="userSpaceOnUse" x="13" y="13" width="30" height="30">
<rect x="13" y="13" width="30" height="30" fill="#D9D9D9"/>
</mask>
<g mask="url(#mask0_1087_15596)">
<path d="M19.875 23C19.5208 23 19.224 22.8802 18.9844 22.6406C18.7448 22.401 18.625 22.1042 18.625 21.75C18.625 21.3958 18.7448 21.099 18.9844 20.8594C19.224 20.6198 19.5208 20.5 19.875 20.5C20.2292 20.5 20.526 20.6198 20.7656 20.8594C21.0052 21.099 21.125 21.3958 21.125 21.75C21.125 22.1042 21.0052 22.401 20.7656 22.6406C20.526 22.8802 20.2292 23 19.875 23ZM25.5 40.5C24.125 40.5 22.9479 40.0104 21.9688 39.0312C20.9896 38.0521 20.5 36.875 20.5 35.5V28C20.5 25.9167 21.2292 24.1458 22.6875 22.6875C24.1458 21.2292 25.9167 20.5 28 20.5H30.2812C31.7188 20.5 32.9479 20.9844 33.9688 21.9531C34.9896 22.9219 35.5 24.1146 35.5 25.5313C35.5 26.4896 35.2448 27.3698 34.7344 28.1719C34.224 28.974 33.5312 29.5833 32.6562 30C31.9896 30.3125 31.4635 30.776 31.0781 31.3906C30.6927 32.0052 30.5 32.6771 30.5 33.4062V35.5C30.5 36.8958 30.0156 38.0781 29.0469 39.0469C28.0781 40.0156 26.8958 40.5 25.5 40.5ZM23 20.5C22.6458 20.5 22.349 20.3802 22.1094 20.1406C21.8698 19.901 21.75 19.6042 21.75 19.25V18.625C21.75 18.2708 21.8698 17.974 22.1094 17.7344C22.349 17.4948 22.6458 17.375 23 17.375C23.3542 17.375 23.651 17.4948 23.8906 17.7344C24.1302 17.974 24.25 18.2708 24.25 18.625V19.25C24.25 19.6042 24.1302 19.901 23.8906 20.1406C23.651 20.3802 23.3542 20.5 23 20.5ZM26.75 19.25C26.3958 19.25 26.099 19.1302 25.8594 18.8906C25.6198 18.651 25.5 18.3542 25.5 18V17.375C25.5 17.0208 25.6198 16.724 25.8594 16.4844C26.099 16.2448 26.3958 16.125 26.75 16.125C27.1042 16.125 27.401 16.2448 27.6406 16.4844C27.8802 16.724 28 17.0208 28 17.375V18C28 18.3542 27.8802 18.651 27.6406 18.8906C27.401 19.1302 27.1042 19.25 26.75 19.25ZM30.5 19.25C30.1458 19.25 29.849 19.1302 29.6094 18.8906C29.3698 18.651 29.25 18.3542 29.25 18V16.75C29.25 16.3958 29.3698 16.099 29.6094 15.8594C29.849 15.6198 30.1458 15.5 30.5 15.5C30.8542 15.5 31.151 15.6198 31.3906 15.8594C31.6302 16.099 31.75 16.3958 31.75 16.75V18C31.75 18.3542 31.6302 18.651 31.3906 18.8906C31.151 19.1302 30.8542 19.25 30.5 19.25ZM34.875 20.5C34.3542 20.5 33.9115 20.3177 33.5469 19.9531C33.1823 19.5885 33 19.1458 33 18.625V17.375C33 16.8542 33.1823 16.4115 33.5469 16.0469C33.9115 15.6823 34.3542 15.5 34.875 15.5C35.3958 15.5 35.8385 15.6823 36.2031 16.0469C36.5677 16.4115 36.75 16.8542 36.75 17.375V18.625C36.75 19.1458 36.5677 19.5885 36.2031 19.9531C35.8385 20.3177 35.3958 20.5 34.875 20.5Z" fill="#3F78E0"/>
</g>
<circle cx="28" cy="28" r="27.5" stroke="#3F78E0"/>
</svg>
