<svg width="56" height="56" viewBox="0 0 56 56" fill="none" xmlns="http://www.w3.org/2000/svg">
<mask id="mask0_1087_15564" style="mask-type:alpha" maskUnits="userSpaceOnUse" x="13" y="13" width="30" height="30">
<rect x="13" y="13" width="30" height="30" fill="#D9D9D9"/>
</mask>
<g mask="url(#mask0_1087_15564)">
<path d="M34.9062 31.7507L32.1875 30.1882L36.5625 26.9382L39.25 28.5007L34.9062 31.7507ZM18 38.0007V35.5007H24.25V28.0632L20.5 25.9069C19.8958 25.5527 19.5052 25.0475 19.3281 24.3913C19.151 23.735 19.2396 23.1048 19.5938 22.5007L21.4688 19.2507C21.8229 18.6465 22.3281 18.2559 22.9844 18.0788C23.6406 17.9017 24.2708 17.9902 24.875 18.3444L36.7812 25.2194L29.1562 30.9069L26.75 29.5319V35.5007C26.75 36.1882 26.5052 36.7767 26.0156 37.2663C25.526 37.7559 24.9375 38.0007 24.25 38.0007H18Z" fill="#3F78E0"/>
</g>
<circle cx="28" cy="28" r="27.5" stroke="#3F78E0"/>
</svg>
