<svg width="56" height="56" viewBox="0 0 56 56" fill="none" xmlns="http://www.w3.org/2000/svg">
<mask id="mask0_1087_15638" style="mask-type:alpha" maskUnits="userSpaceOnUse" x="13" y="13" width="30" height="30">
<rect x="13" y="13" width="30" height="30" fill="#D9D9D9"/>
</mask>
<g mask="url(#mask0_1087_15638)">
<path d="M22.5312 21L26.0312 16.4688C26.2812 16.1354 26.5781 15.8906 26.9219 15.7344C27.2656 15.5781 27.625 15.5 28 15.5C28.375 15.5 28.7344 15.5781 29.0781 15.7344C29.4219 15.8906 29.7188 16.1354 29.9688 16.4688L33.4688 21L38.7812 22.7813C39.3229 22.9479 39.75 23.2552 40.0625 23.7031C40.375 24.151 40.5312 24.6458 40.5312 25.1875C40.5312 25.4375 40.4948 25.6875 40.4219 25.9375C40.349 26.1875 40.2292 26.4271 40.0625 26.6562L36.625 31.5312L36.75 36.6563C36.7708 37.3854 36.5313 38 36.0313 38.5C35.5313 39 34.9479 39.25 34.2812 39.25C34.2396 39.25 34.0104 39.2188 33.5938 39.1563L28 37.5938L22.4062 39.1563C22.3021 39.1979 22.1875 39.224 22.0625 39.2344C21.9375 39.2448 21.8229 39.25 21.7188 39.25C21.0521 39.25 20.4688 39 19.9688 38.5C19.4688 38 19.2292 37.3854 19.25 36.6563L19.375 31.5L15.9688 26.6562C15.8021 26.4271 15.6823 26.1875 15.6094 25.9375C15.5365 25.6875 15.5 25.4375 15.5 25.1875C15.5 24.6667 15.651 24.1823 15.9531 23.7344C16.2552 23.2865 16.6771 22.9688 17.2188 22.7813L22.5312 21Z" fill="#3F78E0"/>
</g>
<circle cx="28" cy="28" r="27.5" stroke="#3F78E0"/>
</svg>
