<svg width="56" height="56" viewBox="0 0 56 56" fill="none" xmlns="http://www.w3.org/2000/svg">
<mask id="mask0_1253_3241" style="mask-type:alpha" maskUnits="userSpaceOnUse" x="13" y="13" width="30" height="30">
<rect x="13" y="13" width="30" height="30" fill="#D9D9D9"/>
</mask>
<g mask="url(#mask0_1253_3241)">
<path d="M14.25 38V34.5C14.25 33.7917 14.4323 33.1406 14.7969 32.5469C15.1615 31.9531 15.6458 31.5 16.25 31.1875C17.5417 30.5417 18.8542 30.0573 20.1875 29.7344C21.5208 29.4115 22.875 29.25 24.25 29.25C25.625 29.25 26.9792 29.4115 28.3125 29.7344C29.6458 30.0573 30.9583 30.5417 32.25 31.1875C32.8542 31.5 33.3385 31.9531 33.7031 32.5469C34.0677 33.1406 34.25 33.7917 34.25 34.5V38H14.25ZM36.75 38V34.25C36.75 33.3333 36.4948 32.4531 35.9844 31.6094C35.474 30.7656 34.75 30.0417 33.8125 29.4375C34.875 29.5625 35.875 29.776 36.8125 30.0781C37.75 30.3802 38.625 30.75 39.4375 31.1875C40.1875 31.6042 40.7604 32.0677 41.1562 32.5781C41.5521 33.0885 41.75 33.6458 41.75 34.25V38H36.75ZM24.25 28C22.875 28 21.6979 27.5104 20.7188 26.5312C19.7396 25.5521 19.25 24.375 19.25 23C19.25 21.625 19.7396 20.4479 20.7188 19.4688C21.6979 18.4896 22.875 18 24.25 18C25.625 18 26.8021 18.4896 27.7812 19.4688C28.7604 20.4479 29.25 21.625 29.25 23C29.25 24.375 28.7604 25.5521 27.7812 26.5312C26.8021 27.5104 25.625 28 24.25 28ZM36.75 23C36.75 24.375 36.2604 25.5521 35.2812 26.5312C34.3021 27.5104 33.125 28 31.75 28C31.5208 28 31.2292 27.974 30.875 27.9219C30.5208 27.8698 30.2292 27.8125 30 27.75C30.5625 27.0833 30.9948 26.3438 31.2969 25.5312C31.599 24.7188 31.75 23.875 31.75 23C31.75 22.125 31.599 21.2812 31.2969 20.4688C30.9948 19.6562 30.5625 18.9167 30 18.25C30.2917 18.1458 30.5833 18.0781 30.875 18.0469C31.1667 18.0156 31.4583 18 31.75 18C33.125 18 34.3021 18.4896 35.2812 19.4688C36.2604 20.4479 36.75 21.625 36.75 23Z" fill="#3F78E0"/>
</g>
<circle cx="28" cy="28" r="27.5" stroke="#3F78E0"/>
</svg>
