<svg width="56" height="56" viewBox="0 0 56 56" fill="none" xmlns="http://www.w3.org/2000/svg">
<mask id="mask0_1087_15647" style="mask-type:alpha" maskUnits="userSpaceOnUse" x="13" y="13" width="30" height="30">
<rect x="13" y="13" width="30" height="30" fill="#D9D9D9"/>
</mask>
<g mask="url(#mask0_1087_15647)">
<path d="M21.75 38.0312V26.75H23.75C23.8958 26.75 24.0417 26.7656 24.1875 26.7969C24.3333 26.8281 24.4792 26.8646 24.625 26.9062L33.2812 30.125C33.5729 30.2292 33.8073 30.4167 33.9844 30.6875C34.1615 30.9583 34.25 31.2396 34.25 31.5312C34.25 31.9688 34.099 32.3229 33.7969 32.5938C33.4948 32.8646 33.1458 33 32.75 33H29.4688C29.3646 33 29.2865 32.9948 29.2344 32.9844C29.1823 32.974 29.1146 32.9479 29.0312 32.9062L27.0312 32.125L26.625 33.3438L29.0312 34.1875C29.0729 34.2083 29.1354 34.224 29.2188 34.2344C29.3021 34.2448 29.375 34.25 29.4375 34.25H38C38.6667 34.25 39.25 34.4896 39.75 34.9688C40.25 35.4479 40.5 36.0417 40.5 36.75L30.5312 40.5L21.75 38.0312ZM14.25 40.5V26.75H19.25V40.5H14.25ZM31.75 27.5625L24.5625 24.875H19.5625C19.9167 23.8125 20.5052 22.8958 21.3281 22.125C22.151 21.3542 23.125 20.8542 24.25 20.625V18H22.375V15.5H29.25C29.9583 15.5 30.625 15.6146 31.25 15.8438C31.875 16.0729 32.4479 16.3854 32.9688 16.7812L31.1875 18.5625C30.8958 18.3958 30.5885 18.2604 30.2656 18.1562C29.9427 18.0521 29.6042 18 29.25 18H26.75V20.625C28.1875 20.9167 29.3802 21.6302 30.3281 22.7656C31.276 23.901 31.75 25.2292 31.75 26.75V27.5625ZM36.75 25.5C36.0625 25.5 35.474 25.2552 34.9844 24.7656C34.4948 24.276 34.25 23.6875 34.25 23C34.25 22.5208 34.4271 21.9271 34.7813 21.2188C35.1354 20.5104 35.7917 19.4375 36.75 18C37.7083 19.4375 38.3646 20.5104 38.7188 21.2188C39.0729 21.9271 39.25 22.5208 39.25 23C39.25 23.6875 39.0052 24.276 38.5156 24.7656C38.026 25.2552 37.4375 25.5 36.75 25.5Z" fill="#3F78E0"/>
</g>
<circle cx="28" cy="28" r="27.5" stroke="#3F78E0"/>
</svg>
