<svg width="56" height="56" viewBox="0 0 56 56" fill="none" xmlns="http://www.w3.org/2000/svg">
<mask id="mask0_1253_3267" style="mask-type:alpha" maskUnits="userSpaceOnUse" x="13" y="13" width="30" height="30">
<rect x="13" y="13" width="30" height="30" fill="#D9D9D9"/>
</mask>
<g mask="url(#mask0_1253_3267)">
<path d="M28 34.25C28.3542 34.25 28.651 34.1302 28.8906 33.8906C29.1302 33.651 29.25 33.3542 29.25 33C29.25 32.6458 29.1302 32.349 28.8906 32.1094C28.651 31.8698 28.3542 31.75 28 31.75C27.6458 31.75 27.349 31.8698 27.1094 32.1094C26.8698 32.349 26.75 32.6458 26.75 33C26.75 33.3542 26.8698 33.651 27.1094 33.8906C27.349 34.1302 27.6458 34.25 28 34.25ZM26.75 29.25H29.25V21.75H26.75V29.25ZM28 40.5C26.2708 40.5 24.6458 40.1719 23.125 39.5156C21.6042 38.8594 20.2812 37.9688 19.1562 36.8438C18.0312 35.7188 17.1406 34.3958 16.4844 32.875C15.8281 31.3542 15.5 29.7292 15.5 28C15.5 26.2708 15.8281 24.6458 16.4844 23.125C17.1406 21.6042 18.0312 20.2812 19.1562 19.1562C20.2812 18.0312 21.6042 17.1406 23.125 16.4844C24.6458 15.8281 26.2708 15.5 28 15.5C29.7292 15.5 31.3542 15.8281 32.875 16.4844C34.3958 17.1406 35.7188 18.0312 36.8438 19.1562C37.9688 20.2812 38.8594 21.6042 39.5156 23.125C40.1719 24.6458 40.5 26.2708 40.5 28C40.5 29.7292 40.1719 31.3542 39.5156 32.875C38.8594 34.3958 37.9688 35.7188 36.8438 36.8438C35.7188 37.9688 34.3958 38.8594 32.875 39.5156C31.3542 40.1719 29.7292 40.5 28 40.5Z" fill="#3F78E0"/>
</g>
<circle cx="28" cy="28" r="27.5" stroke="#3F78E0"/>
</svg>
