<svg width="56" height="56" viewBox="0 0 56 56" fill="none" xmlns="http://www.w3.org/2000/svg">
<mask id="mask0_1087_15629" style="mask-type:alpha" maskUnits="userSpaceOnUse" x="13" y="13" width="30" height="30">
<rect x="13" y="13" width="30" height="30" fill="#D9D9D9"/>
</mask>
<g mask="url(#mask0_1087_15629)">
<path d="M14.25 31.75C14.25 29.4792 15.1979 27.6615 17.0938 26.2969C18.9896 24.9323 21.1667 24.25 23.625 24.25C26.0833 24.25 28.2604 24.9323 30.1562 26.2969C32.0521 27.6615 33 29.4792 33 31.75H14.25ZM14.25 36.75V34.25H33V36.75H14.25ZM15.5 41.75C15.1458 41.75 14.849 41.6302 14.6094 41.3906C14.3698 41.151 14.25 40.8542 14.25 40.5V39.25H33V40.5C33 40.8542 32.8802 41.151 32.6406 41.3906C32.401 41.6302 32.1042 41.75 31.75 41.75H15.5ZM35.5 41.75V31.75C35.5 29.375 34.6875 27.3229 33.0625 25.5938C31.4375 23.8646 29.4479 22.7083 27.0938 22.125L26.75 19.25H33V14.25H35.5V19.25H41.75L39.7188 39.5C39.6562 40.1458 39.3906 40.6823 38.9219 41.1094C38.4531 41.5365 37.8958 41.75 37.25 41.75H35.5Z" fill="#3F78E0"/>
</g>
<circle cx="28" cy="28" r="27.5" stroke="#3F78E0"/>
</svg>
